<svg width="29" height="51" viewBox="0 0 29 51" fill="none" xmlns="http://www.w3.org/2000/svg">
<path d="M7.88128 37.0024C7.92183 36.9577 7.99236 37.0089 7.96251 37.0613L7.87339 37.2178C7.87252 37.2193 7.87207 37.221 7.87207 37.2228C7.87207 37.2245 7.87161 37.2262 7.87074 37.2278L7.07161 38.6227C7.06794 38.6291 7.06291 38.6348 7.06041 38.6418C7.05763 38.6493 7.05618 38.6573 7.05221 38.6643L0.474476 50.1743C0.473821 50.1755 0.4726 50.1762 0.471279 50.1762C0.470161 50.1762 0.469083 50.1767 0.468487 50.1776C0.467454 50.1792 0.466666 50.1811 0.466166 50.1832C0.465581 50.1856 0.464959 50.188 0.463737 50.1901L0.438824 50.2336C0.319161 50.4426 0 50.3577 0 50.1169V46.2016C0 45.8849 0.117758 45.5795 0.33039 45.3447L7.86636 37.0241C7.86752 37.0229 7.86816 37.0212 7.86816 37.0195C7.86816 37.0178 7.8688 37.0161 7.86996 37.0148L7.88128 37.0024Z" fill="url(#paint0_linear)"/>
<path d="M17.8334 20.2413C17.9233 20.142 18.0851 20.2353 18.0441 20.3629L17.8443 20.9845C17.8396 20.999 17.8323 21.0127 17.8294 21.0277L8.45887 50.1655C8.45593 50.1804 8.44871 50.1942 8.44406 50.2086L8.24368 50.8341C8.23367 50.8644 8.1889 50.8572 8.1889 50.8253V32.0661C8.1889 31.3103 8.46983 30.5816 8.9771 30.0214L17.8334 20.2413Z" fill="url(#paint1_linear)"/>
<path d="M27.8967 1.83964C28.1999 1.50445 28.7513 1.78644 28.6571 2.22849L28.6363 2.3258C28.6362 2.32622 28.636 2.32661 28.6358 2.32696C28.6343 2.32896 28.6345 2.33316 28.6334 2.33536C28.6331 2.33586 28.6322 2.33743 28.6322 2.33798C28.6319 2.34092 28.6314 2.3438 28.6306 2.34657C28.6294 2.35103 28.6284 2.35557 28.6284 2.36018V2.36388C28.6271 2.37616 28.6247 2.38815 28.6211 2.39952C28.6208 2.4006 28.6198 2.40132 28.6186 2.40132C28.6174 2.40132 28.6164 2.40213 28.6161 2.40328C28.6114 2.42187 28.6077 2.44088 28.6049 2.46017L18.6883 48.8147C18.6871 48.8201 18.6865 48.8256 18.6865 48.8311C18.6865 48.8363 18.686 48.8414 18.685 48.8465L18.6748 48.8977L18.3109 50.5881C18.2993 50.6413 18.2209 50.6329 18.2209 50.5784V14.0597C18.2209 13.0702 18.5888 12.1161 19.2529 11.3826L27.874 1.86246C27.881 1.85474 27.8906 1.84804 27.8967 1.83964Z" fill="url(#paint2_linear)"/>
<path d="M28.6442 2.28879C28.6892 2.07763 29 2.1104 29 2.32631V46.195C29 48.8487 26.8488 51 24.195 51H18.6426C18.4259 51 18.2647 50.7998 18.3109 50.5881L18.6748 48.8977L18.685 48.8465C18.686 48.8414 18.6865 48.8363 18.6865 48.8311C18.6865 48.8256 18.6871 48.8201 18.6883 48.8147L28.6049 2.46017C28.6077 2.44088 28.6114 2.42187 28.6161 2.40328C28.6164 2.40213 28.6174 2.40132 28.6186 2.40132C28.6198 2.40132 28.6208 2.4006 28.6211 2.39952C28.6247 2.38815 28.6271 2.37616 28.6284 2.36388V2.36018C28.6284 2.35557 28.6294 2.35103 28.6306 2.34657C28.6314 2.3438 28.6319 2.34092 28.6322 2.33798C28.6322 2.33743 28.6331 2.33586 28.6334 2.33536C28.6345 2.33316 28.6343 2.32896 28.6358 2.32696C28.636 2.32661 28.6362 2.32622 28.6363 2.3258L28.6442 2.28879Z" fill="url(#paint3_linear)"/>
<path d="M17.8436 20.9867C17.911 20.7769 18.2207 20.8254 18.2207 21.0458V46.791C18.2207 49.1156 16.3363 51 14.0118 51H8.36354C8.27753 51 8.2167 50.9158 8.24368 50.8341L8.44406 50.2086C8.44871 50.1942 8.45593 50.1804 8.45887 50.1655L17.8294 21.0277C17.8296 21.0269 17.8298 21.0261 17.8299 21.0254C17.8329 21.012 17.8394 20.9997 17.8436 20.9867Z" fill="url(#paint4_linear)"/>
<path d="M7.87207 37.2201C7.9582 37.0689 8.18899 37.13 8.18899 37.304V47.9981C8.18899 49.656 6.845 51 5.1871 51H0.827031C0.458708 51 0.227939 50.6019 0.410964 50.2823L0.463737 50.1901C0.464959 50.188 0.465581 50.1856 0.466166 50.1832C0.466666 50.1811 0.467454 50.1792 0.468487 50.1776C0.469083 50.1767 0.470161 50.1762 0.471278 50.1762C0.4726 50.1762 0.47382 50.1755 0.474476 50.1743L7.07782 38.6109L7.87207 37.2201Z" fill="url(#paint5_linear)"/>
<g style="mix-blend-mode:multiply" opacity="0.25">
<g style="mix-blend-mode:multiply" opacity="0.25">
<path d="M27.8848 1.8504C27.1258 2.80793 26.3511 3.72802 25.5764 4.65345C24.8017 5.60028 24.0114 6.52034 23.2249 7.44578L20.8461 10.1954C19.4064 11.8294 18.5941 13.9607 18.6042 16.1384C18.6081 17.3474 18.6121 18.551 18.6082 19.7599C18.6003 22.1671 18.5925 24.5797 18.5612 26.9922C18.5534 28.1958 18.5338 29.4048 18.5142 30.6084C18.4947 31.812 18.4712 33.021 18.4438 34.2246C18.4164 35.4282 18.3812 36.6371 18.346 37.8407C18.3108 39.0443 18.2756 40.2532 18.2208 41.4622C18.166 40.2532 18.1308 39.0496 18.0917 37.8407C18.0526 36.6317 18.0174 35.4335 17.9939 34.2246C17.9704 33.0156 17.943 31.8173 17.9274 30.6084C17.9117 29.3994 17.8843 28.1958 17.8765 26.9922C17.853 24.9969 17.8413 22.9963 17.8374 21.0063C17.8374 20.771 17.8335 20.5409 17.8335 20.3109C17.8335 20.2662 17.8501 20.2231 17.8801 20.1899L18.0271 20.0275C18.1518 19.8897 18.2208 19.7106 18.2208 19.5249V16.1685C18.2208 13.8219 19.0931 11.559 20.6683 9.81954L27.8848 1.8504Z" fill="black"/>
</g>
</g>
<g style="mix-blend-mode:multiply" opacity="0.25">
<g style="mix-blend-mode:multiply" opacity="0.25">
<path d="M18.2209 19.8134C18.0905 19.9845 17.9614 20.1504 17.8336 20.3108C17.1763 21.1614 16.5072 21.9798 15.8382 22.7983C15.0322 23.7719 14.2223 24.7401 13.4046 25.6923C12.5868 26.6444 11.7613 27.5859 10.9357 28.5221C9.4143 30.2089 8.59225 32.4078 8.55099 34.6791C8.55037 34.713 8.54973 34.7469 8.54908 34.7808C8.53343 36.0807 8.51778 37.3752 8.48256 38.6751C8.45909 39.9696 8.41605 41.2642 8.37301 42.5641C8.32215 43.8586 8.27128 45.1585 8.18912 46.453C8.11087 45.1585 8.06001 43.8586 8.00914 42.5641C7.9661 41.2642 7.92307 39.9696 7.89959 38.6751C7.88785 38.1937 7.87612 37.7069 7.8722 37.2254C7.8722 37.2219 7.87192 37.2183 7.87141 37.2148C7.86956 37.2019 7.86829 37.1888 7.86761 37.1757C7.86562 37.1376 7.86459 37.0994 7.86546 37.0613C7.86576 37.0482 7.8667 37.0351 7.86829 37.0221C7.86829 37.0187 7.86957 37.0154 7.87189 37.0128L8.02871 36.8403C8.13193 36.7267 8.18912 36.5787 8.18912 36.4252V33.774C8.18912 31.9191 8.87865 30.1304 10.1238 28.7554L17.8336 20.2413L18.2209 19.8134Z" fill="black"/>
</g>
</g>
<g style="mix-blend-mode:multiply" opacity="0.25">
<g style="mix-blend-mode:multiply" opacity="0.25">
<path d="M8.18899 36.6638C8.08335 36.8189 7.97771 36.9687 7.86816 37.1184C7.35952 37.8353 6.83524 38.52 6.29922 39.194C5.65365 40.0071 4.99242 40.7988 4.32338 41.5744C3.99472 41.9703 3.65042 42.3394 3.31394 42.7245C2.97746 43.1097 2.63316 43.4842 2.28885 43.8533C1.94455 44.2224 1.60415 44.6075 1.25202 44.9659C0.640736 45.585 0.291749 46.4182 0.253551 47.2874C0.237923 47.643 0.220257 47.9981 0.199544 48.352C0.144769 49.2347 0.0899889 50.1173 0 51C0 47.5951 1.26583 44.3119 3.55149 41.7882L7.86636 37.0241C7.86752 37.0229 7.86816 37.0212 7.86816 37.0195C7.86816 37.0178 7.8688 37.0161 7.86996 37.0148L8.18899 36.6638Z" fill="black"/>
</g>
</g>
<g style="mix-blend-mode:multiply" opacity="0.25">
<g style="mix-blend-mode:multiply" opacity="0.25">
<path d="M28.9999 7.13544V25.85C28.9999 39.7399 17.7399 51 3.85001 51C5.29372 50.9251 6.74137 50.8823 8.18902 50.8341H8.24383L10.1375 50.7699L13.2793 50.6843L16.425 50.6148L18.2209 50.5881H18.3108L22.7124 50.5239C25.9779 50.5002 28.6097 47.8424 28.612 44.5768C28.6131 43.0625 28.6159 41.5482 28.6204 40.0338C28.6204 36.3802 28.6517 32.7213 28.6713 29.0677L28.7221 23.5846L28.7926 18.1016L28.8865 12.6185C28.9139 10.789 28.953 8.96491 28.9999 7.13544Z" fill="black"/>
</g>
</g>
<g style="mix-blend-mode:multiply" opacity="0.25">
<g style="mix-blend-mode:multiply" opacity="0.25">
<path d="M6.8883 38.5041C6.985 38.3605 7.14789 38.4527 7.0763 38.6103C7.07451 38.6143 7.07272 38.6182 7.07093 38.6222C7.06787 38.6289 7.06313 38.635 7.06059 38.6419C7.05782 38.6494 7.05637 38.6574 7.05242 38.6643L0.473611 50.1763L0.472353 50.178C0.470453 50.1806 0.467506 50.1792 0.469452 50.1766C0.46963 50.1764 0.469734 50.1762 0.469849 50.1759C0.513528 50.0728 0.869411 49.2389 1.43611 48.0793C1.73738 47.4535 2.09733 46.7367 2.49641 45.9824C2.89549 45.2281 3.32978 44.4311 3.76407 43.6394C4.21401 42.8584 4.65613 42.072 5.09042 41.3552C5.52472 40.6384 5.93162 39.9697 6.29549 39.4081C6.5146 39.0652 6.71525 38.761 6.8883 38.5041Z" fill="black"/>
</g>
</g>
<g style="mix-blend-mode:multiply" opacity="0.25">
<g style="mix-blend-mode:multiply" opacity="0.25">
<path d="M17.8293 21.0276L8.45875 50.1655C8.45807 50.1689 8.45591 50.1682 8.45682 50.1648C8.48402 50.063 8.60467 49.6139 8.80306 48.903C9.03781 48.0899 9.35473 46.9184 9.76555 45.5329C10.1685 44.1475 10.6537 42.532 11.1858 40.8095C11.7179 39.087 12.297 37.2629 12.876 35.4334C13.4668 33.6146 14.0576 31.7905 14.6328 30.0948C15.2001 28.399 15.74 26.821 16.2174 25.4729C16.6869 24.1249 17.1016 23.0123 17.3833 22.2312C17.631 21.5465 17.7941 21.1239 17.8293 21.0276Z" fill="black"/>
</g>
</g>
<g style="mix-blend-mode:multiply" opacity="0.25">
<g style="mix-blend-mode:multiply" opacity="0.25">
<path d="M28.1507 4.30566C28.3815 3.35883 28.538 2.71691 28.6045 2.46014L18.6862 48.8228C18.7293 48.6035 18.8505 47.9187 19.0461 46.8703C19.2965 45.5918 19.6291 43.7463 20.0712 41.553C20.5133 39.3598 21.0103 36.7975 21.5776 34.0586C22.1371 31.3198 22.7552 28.4097 23.3734 25.4943C23.9994 22.5897 24.6255 19.6796 25.2358 16.9622C25.8345 14.2394 26.4291 11.7091 26.9182 9.53729C27.4073 7.36546 27.8573 5.56811 28.1507 4.30566Z" fill="black"/>
</g>
</g>
<g style="mix-blend-mode:multiply" opacity="0.25">
<g style="mix-blend-mode:multiply" opacity="0.25">
<path d="M28.6179 2.39317C28.6194 2.38806 28.6235 2.38918 28.6219 2.39426C28.6216 2.39538 28.6212 2.39649 28.6209 2.39759C28.6206 2.39842 28.6198 2.39896 28.6189 2.39896C28.6176 2.39896 28.6166 2.39769 28.617 2.39639C28.6173 2.39532 28.6176 2.39425 28.6179 2.39317Z" fill="black"/>
</g>
</g>
<g style="mix-blend-mode:screen" opacity="0.6">
<g style="mix-blend-mode:screen" opacity="0.6">
<path d="M0.469629 50.1769C0.469951 50.1764 0.470507 50.1761 0.471094 50.1761C0.47256 50.1761 0.473435 50.1778 0.472625 50.179L0.471614 50.1805C0.470019 50.1829 0.467094 50.1817 0.468361 50.1792C0.468746 50.1784 0.469169 50.1776 0.469629 50.1769Z" fill="white"/>
</g>
</g>
<g style="mix-blend-mode:screen" opacity="0.4">
<g style="mix-blend-mode:screen" opacity="0.4">
<path d="M7.07792 38.611C6.93316 38.9159 6.76101 39.285 6.56147 39.6915C6.2602 40.3121 5.90025 41.0289 5.50116 41.7831C5.10208 42.5374 4.66779 43.3344 4.22958 44.1261C3.78354 44.9125 3.34142 45.6935 2.90712 46.4103C2.47283 47.1271 2.06202 47.7958 1.70206 48.3574C1.0291 49.4113 0.532199 50.096 0.473511 50.1762L7.07792 38.611Z" fill="white"/>
</g>
</g>
<g style="mix-blend-mode:screen" opacity="0.4">
<g style="mix-blend-mode:screen" opacity="0.4">
<path d="M17.8297 21.0277C17.8304 21.0242 17.8327 21.025 17.8318 21.0285C17.8053 21.1303 17.6872 21.5794 17.4854 22.2902C17.2546 23.1033 16.9338 24.2748 16.5269 25.6603C16.12 27.0457 15.6348 28.6612 15.1027 30.3837C14.5784 32.1062 13.9955 33.9303 13.4125 35.7598C12.8217 37.5786 12.2309 39.3973 11.6596 41.0931C11.0884 42.7888 10.5485 44.3722 10.0711 45.7203C9.60163 47.0683 9.1869 48.1809 8.90911 48.9619C8.65871 49.6467 8.49438 50.0693 8.45917 50.1655L17.8297 21.0277Z" fill="white"/>
</g>
</g>
<g style="mix-blend-mode:screen" opacity="0.6">
<g style="mix-blend-mode:screen" opacity="0.6">
<path d="M28.6168 2.39939C28.6182 2.39358 28.6223 2.39461 28.6205 2.4003C28.5814 2.61962 28.4561 3.29899 28.2605 4.34746C28.014 5.62595 27.6775 7.47149 27.2354 9.66471C26.7933 11.8579 26.2964 14.4203 25.733 17.1591C25.1696 19.898 24.5514 22.808 23.9371 25.7234C23.3072 28.6281 22.6812 31.5381 22.0708 34.2556C21.4722 36.9784 20.8775 39.5086 20.3884 41.6804C19.8993 43.8522 19.4494 45.6496 19.156 46.912C18.8987 47.9625 18.7373 48.6436 18.6889 48.8393C18.6877 48.844 18.6846 48.843 18.6862 48.8386C18.6864 48.8381 18.6865 48.8376 18.6865 48.8371V48.8276C18.6865 48.8238 18.6869 48.8199 18.6877 48.8161L28.6048 2.45914C28.6077 2.43917 28.6116 2.41951 28.6166 2.4003C28.6166 2.4 28.6167 2.39969 28.6168 2.39939Z" fill="white"/>
</g>
</g>
<defs>
<linearGradient id="paint0_linear" x1="4.09449" y1="38.083" x2="4.09449" y2="48.9499" gradientUnits="userSpaceOnUse">
<stop stop-color="#3E6896"/>
<stop offset="0.247" stop-color="#355881"/>
<stop offset="0.75" stop-color="#1F324E"/>
<stop offset="1" stop-color="#131D32"/>
</linearGradient>
<linearGradient id="paint1_linear" x1="13.2048" y1="23.6805" x2="13.2048" y2="44.482" gradientUnits="userSpaceOnUse">
<stop stop-color="#49A09D"/>
<stop offset="0.149" stop-color="#4A989B"/>
<stop offset="0.375" stop-color="#4E8396"/>
<stop offset="0.65" stop-color="#54618E"/>
<stop offset="0.96" stop-color="#5D3283"/>
<stop offset="1" stop-color="#5F2C82"/>
</linearGradient>
<linearGradient id="paint2_linear" x1="23.6105" y1="2.38329" x2="23.6105" y2="42.1331" gradientUnits="userSpaceOnUse">
<stop stop-color="#00F3FF"/>
<stop offset="0.238" stop-color="#00EFFC"/>
<stop offset="0.44" stop-color="#00E5F4"/>
<stop offset="0.629" stop-color="#00D3E7"/>
<stop offset="0.81" stop-color="#00BAD4"/>
<stop offset="0.983" stop-color="#009BBC"/>
<stop offset="1" stop-color="#0098BA"/>
</linearGradient>
<linearGradient id="paint3_linear" x1="23.6105" y1="29.79" x2="23.6105" y2="56.3402" gradientUnits="userSpaceOnUse">
<stop stop-color="#00F3FF"/>
<stop offset="0.238" stop-color="#00EFFC"/>
<stop offset="0.44" stop-color="#00E5F4"/>
<stop offset="0.629" stop-color="#00D3E7"/>
<stop offset="0.81" stop-color="#00BAD4"/>
<stop offset="0.983" stop-color="#009BBC"/>
<stop offset="1" stop-color="#0098BA"/>
</linearGradient>
<linearGradient id="paint4_linear" x1="13.2048" y1="31.9449" x2="13.2048" y2="54.3995" gradientUnits="userSpaceOnUse">
<stop stop-color="#49A09D"/>
<stop offset="0.149" stop-color="#4A989B"/>
<stop offset="0.375" stop-color="#4E8396"/>
<stop offset="0.65" stop-color="#54618E"/>
<stop offset="0.96" stop-color="#5D3283"/>
<stop offset="1" stop-color="#5F2C82"/>
</linearGradient>
<linearGradient id="paint5_linear" x1="4.09449" y1="43.5165" x2="4.09449" y2="53.4658" gradientUnits="userSpaceOnUse">
<stop stop-color="#3E6896"/>
<stop offset="0.247" stop-color="#355881"/>
<stop offset="0.75" stop-color="#1F324E"/>
<stop offset="1" stop-color="#131D32"/>
</linearGradient>
</defs>
</svg>
